<svg xmlns="http://www.w3.org/2000/svg" viewBox="0 0 520 200" font-family="ui-monospace, SFMono-Regular, 'JetBrains Mono', Menlo, Consolas, monospace">
  <defs>
    <linearGradient id="bg" x1="0" y1="0" x2="1" y2="1">
      <stop offset="0%" stop-color="#1e293b"/>
      <stop offset="100%" stop-color="#0b1220"/>
    </linearGradient>
    <linearGradient id="core" x1="0" y1="0" x2="0" y2="1">
      <stop offset="0%" stop-color="#334155"/>
      <stop offset="100%" stop-color="#1e293b"/>
    </linearGradient>
    <marker id="arr" viewBox="0 0 10 10" refX="9" refY="5" markerWidth="7" markerHeight="7" orient="auto">
      <path d="M 0 0 L 10 5 L 0 10 z" fill="#06b6d4"/>
    </marker>
    <marker id="arrIn" viewBox="0 0 10 10" refX="9" refY="5" markerWidth="7" markerHeight="7" orient="auto">
      <path d="M 0 0 L 10 5 L 0 10 z" fill="#64748b"/>
    </marker>
  </defs>

  <!-- plate -->
  <rect width="520" height="200" fill="url(#bg)" rx="14"/>

  <!-- input: file -->
  <g>
    <rect x="30" y="80" width="90" height="40" rx="7" fill="#1e293b" stroke="#334155"/>
    <text x="75" y="105" text-anchor="middle" fill="#94a3b8" font-size="14">file</text>
    <path d="M 120 100 L 200 100" stroke="#64748b" stroke-width="2" marker-end="url(#arrIn)"/>
  </g>

  <!-- core: edtr (dark plate, soft white text) -->
  <rect x="200" y="68" width="120" height="64" rx="9" fill="url(#core)" stroke="#475569" stroke-width="1.5"/>
  <text x="260" y="108" text-anchor="middle" fill="#f1f5f9" font-size="26" font-weight="700" letter-spacing="1">edtr</text>

  <!-- outputs: cyan arrows + slate-200 labels -->
  <g>
    <path d="M 320 90 C 360 60 400 50 440 46" stroke="#06b6d4" stroke-width="2" fill="none" marker-end="url(#arr)"/>
    <text x="455" y="50" fill="#cbd5e1" font-size="14">nvim</text>
  </g>
  <g>
    <path d="M 320 100 L 440 100" stroke="#06b6d4" stroke-width="2" fill="none" marker-end="url(#arr)"/>
    <text x="455" y="104" fill="#cbd5e1" font-size="14">code</text>
  </g>
  <g>
    <path d="M 320 110 C 360 140 400 150 440 154" stroke="#06b6d4" stroke-width="2" fill="none" marker-end="url(#arr)"/>
    <text x="455" y="158" fill="#cbd5e1" font-size="14">&#8230;</text>
  </g>

  <!-- tagline -->
  <text x="260" y="180" text-anchor="middle" fill="#64748b" font-size="11" letter-spacing="2">EDITOR ROUTER / TRANSFER</text>
</svg>
