<svg xmlns="http://www.w3.org/2000/svg" viewBox="0 0 520 200" font-family="ui-monospace, SFMono-Regular, 'JetBrains Mono', Menlo, Consolas, monospace">
  <defs>
    <marker id="arr" viewBox="0 0 10 10" refX="9" refY="5" markerWidth="7" markerHeight="7" orient="auto">
      <path d="M 0 0 L 10 5 L 0 10 z" fill="#7ee787"/>
    </marker>
    <marker id="arrIn" viewBox="0 0 10 10" refX="9" refY="5" markerWidth="7" markerHeight="7" orient="auto">
      <path d="M 0 0 L 10 5 L 0 10 z" fill="#58a6ff"/>
    </marker>
    <linearGradient id="box" x1="0" y1="0" x2="1" y2="1">
      <stop offset="0%" stop-color="#1f6feb"/>
      <stop offset="100%" stop-color="#0969da"/>
    </linearGradient>
  </defs>

  <rect width="520" height="200" fill="#0d1117" rx="12"/>

  <!-- input: file -->
  <g>
    <rect x="30" y="80" width="90" height="40" rx="6" fill="#161b22" stroke="#30363d"/>
    <text x="75" y="105" text-anchor="middle" fill="#c9d1d9" font-size="14">file</text>
    <path d="M 120 100 L 200 100" stroke="#58a6ff" stroke-width="2" marker-end="url(#arrIn)"/>
  </g>

  <!-- core: edtr -->
  <rect x="200" y="70" width="120" height="60" rx="8" fill="url(#box)" stroke="#58a6ff" stroke-width="2"/>
  <text x="260" y="108" text-anchor="middle" fill="#ffffff" font-size="26" font-weight="700" letter-spacing="1">edtr</text>

  <!-- outputs -->
  <g>
    <path d="M 320 90 C 360 60 400 50 440 46" stroke="#7ee787" stroke-width="2" fill="none" marker-end="url(#arr)"/>
    <text x="455" y="50" fill="#7ee787" font-size="14">nvim</text>
  </g>
  <g>
    <path d="M 320 100 L 440 100" stroke="#7ee787" stroke-width="2" marker-end="url(#arr)"/>
    <text x="455" y="104" fill="#7ee787" font-size="14">code</text>
  </g>
  <g>
    <path d="M 320 110 C 360 140 400 150 440 154" stroke="#7ee787" stroke-width="2" fill="none" marker-end="url(#arr)"/>
    <text x="455" y="158" fill="#7ee787" font-size="14">&#8230;</text>
  </g>

  <!-- tagline -->
  <text x="260" y="180" text-anchor="middle" fill="#8b949e" font-size="11" letter-spacing="2">EDITOR ROUTER / TRANSFER</text>
</svg>
